<?xml version="1.0" encoding="UTF-8"?>
<!-- Generator: visioncortex VTracer 0.6.4 -->
<svg version="1.1" xmlns="http://www.w3.org/2000/svg" width="256" height="256">
<path d="M0 0 C7.07761596 4.30811406 11.2496508 9.2338339 13.66015625 17.2265625 C14.09713703 19.41146638 14.19922093 21.40562823 14.19140625 23.6328125 C14.19527344 24.82003906 14.19527344 24.82003906 14.19921875 26.03125 C14.06640625 28.2578125 14.06640625 28.2578125 13.06640625 31.2578125 C13.06640625 35.81222471 15.66200476 37.81629013 18.71875 41.0078125 C21.57855466 43.7486569 24.52499671 46.34816589 27.59765625 48.84765625 C28.08234375 49.31300781 28.56703125 49.77835938 29.06640625 50.2578125 C29.06640625 50.9178125 29.06640625 51.5778125 29.06640625 52.2578125 C29.62328125 52.4846875 30.18015625 52.7115625 30.75390625 52.9453125 C33.71331986 54.62497968 35.69049411 56.82533102 38.06640625 59.2578125 C40.03339791 60.96904874 42.04391374 62.61159767 44.06640625 64.2578125 C44.77990234 63.85949219 44.77990234 63.85949219 45.5078125 63.453125 C56.2360321 58.03962192 68.53296425 56.93657777 80.06640625 60.2578125 C82.49494642 61.25329518 84.81608074 62.31114182 87.12890625 63.55078125 C89.58902394 64.44852581 90.66784732 64.27538295 93.06640625 63.2578125 C94.60747415 61.82237027 94.60747415 61.82237027 96.00390625 59.9453125 C99.27346334 56.01052084 102.84117194 52.61506191 106.62890625 49.1953125 C111.13453613 45.11407976 115.24742407 41.00573629 119.06640625 36.2578125 C120.05640625 35.2678125 120.05640625 35.2678125 121.06640625 34.2578125 C120.74285156 33.54238281 120.41929687 32.82695313 120.0859375 32.08984375 C117.80750535 25.76086557 118.25112599 18.31270495 120.97265625 12.1640625 C125.1864624 4.82000035 130.92316396 -0.22497443 139.06640625 -2.7421875 C147.89412663 -4.04444912 154.70818929 -2.33559491 162.03515625 2.578125 C167.28903296 6.65210567 169.96653387 11.49991522 171.81640625 17.8203125 C172.60082451 25.46839054 171.39019904 31.33145721 168.06640625 38.2578125 C165.50390625 41.2578125 165.50390625 41.2578125 163.06640625 43.2578125 C162.36451172 43.99257812 162.36451172 43.99257812 161.6484375 44.7421875 C158.55471508 47.70604996 155.20247661 49.21409912 151.06640625 50.2578125 C148.69548732 49.95440204 146.3318511 49.59093891 143.9765625 49.18359375 C139.60368779 48.68473087 136.69050914 48.87862143 132.81884766 51.23095703 C129.67578531 53.9564734 126.96576649 57.05043018 124.25390625 60.1953125 C122.81459134 61.7794006 121.36379973 63.35222575 119.91023254 64.92323303 C118.61237516 66.33871959 117.34281085 67.77999476 116.07495117 69.22241211 C115.41213135 69.89409424 114.74931152 70.56577637 114.06640625 71.2578125 C113.40640625 71.2578125 112.74640625 71.2578125 112.06640625 71.2578125 C111.72609375 72.093125 111.72609375 72.093125 111.37890625 72.9453125 C109.70743859 75.89027934 107.51364273 77.93937794 105.06640625 80.2578125 C105.99453125 81.77375 105.99453125 81.77375 106.94140625 83.3203125 C111.82467847 93.17405822 111.98672766 104.82737841 109.06640625 115.2578125 C108.24647915 117.22953036 107.38305101 119.18373712 106.4765625 121.1171875 C106.02547119 122.08624023 105.57437988 123.05529297 105.10961914 124.05371094 C104.76535889 124.78106445 104.42109863 125.50841797 104.06640625 126.2578125 C107.37122567 129.58751184 110.67943884 132.91378975 113.99072266 136.23706055 C115.11468898 137.36602873 116.23775283 138.49589618 117.35986328 139.62670898 C118.98098106 141.2600752 120.60541041 142.8900866 122.23046875 144.51953125 C122.72447174 145.01869553 123.21847473 145.5178598 123.72744751 146.03215027 C126.18012898 148.48521765 128.681254 150.80264761 131.36865234 152.99145508 C134.06640625 155.2578125 134.06640625 155.2578125 135.06640625 157.2578125 C136.05640625 157.0928125 137.04640625 156.9278125 138.06640625 156.7578125 C146.46325643 155.63037971 152.50256326 156.23421381 160.06640625 160.2578125 C162.94140625 162.6953125 162.94140625 162.6953125 165.06640625 165.2578125 C165.78828125 166.0828125 166.51015625 166.9078125 167.25390625 167.7578125 C171.17538513 173.16674889 172.47356922 179.13447954 171.8203125 185.75 C170.52600265 193.28677772 168.36169012 198.6715854 162.31640625 203.5078125 C155.61412212 208.14118452 149.24725995 210.27862201 141.06640625 209.2578125 C133.13196869 207.59293052 127.61154433 202.47272376 122.69140625 196.2578125 C118.99930222 189.44162045 118.21566268 183.11887949 119.87890625 175.5703125 C119.94078125 174.4771875 120.00265625 173.3840625 120.06640625 172.2578125 C118.01303866 170.16105263 118.01303866 170.16105263 115.06640625 168.2578125 C113.18417399 166.21033073 111.40174466 164.09760719 109.6171875 161.96484375 C108.1596085 160.15386661 108.1596085 160.15386661 106.06640625 159.2578125 C106.06640625 158.5978125 106.06640625 157.9378125 106.06640625 157.2578125 C105.40640625 157.2578125 104.74640625 157.2578125 104.06640625 157.2578125 C102.72744993 155.59565982 101.39510483 153.92817643 100.06640625 152.2578125 C98.89078125 151.3296875 98.89078125 151.3296875 97.69140625 150.3828125 C94.36159182 147.68724844 91.76966508 144.56489203 89.06640625 141.2578125 C85.23433506 141.92701611 81.73543359 143.04073922 78.06640625 144.3203125 C67.19560255 147.66235013 58.31174586 146.84627418 47.6484375 143.1328125 C45.20508496 142.15082845 45.20508496 142.15082845 43.06640625 142.2578125 C40.91635495 144.24368704 38.86081796 146.25706491 36.81640625 148.34765625 C36.20249023 148.96677383 35.58857422 149.58589142 34.95605469 150.22377014 C32.98806489 152.2096283 31.02685611 154.20201264 29.06640625 156.1953125 C27.10512218 158.18418312 25.14242199 160.17160122 23.17675781 162.15614319 C21.95199307 163.39319375 20.72991097 164.63290703 19.51074219 165.87547302 C15.28991937 170.14605594 15.28991937 170.14605594 13.06640625 171.2578125 C13.31390625 172.959375 13.31390625 172.959375 13.56640625 174.6953125 C14.620883 183.48778777 14.79249762 190.86582314 9.58984375 198.39453125 C4.83918105 204.26235892 -0.51999908 207.72938354 -7.93359375 209.2578125 C-16.69953668 210.11463399 -22.88438758 208.20993913 -29.68359375 202.6328125 C-35.56942695 197.08186291 -38.47458685 190.65608078 -39.0234375 182.578125 C-38.73346649 175.08930853 -36.05734293 169.36025424 -30.875 164.015625 C-24.37595851 158.131181 -18.77393195 156.10271885 -9.93359375 156.2578125 C-8.51232618 156.52616372 -7.09475432 156.81557485 -5.68359375 157.1328125 C-2.056921 157.63609293 -2.056921 157.63609293 -0.0625 155.91015625 C1.7340953 154.09037908 3.39262535 152.19004487 5.06640625 150.2578125 C5.95328125 149.5565625 6.84015625 148.8553125 7.75390625 148.1328125 C10.21242771 146.27728358 10.21242771 146.27728358 12.25390625 143.5078125 C13.15109375 142.3940625 13.15109375 142.3940625 14.06640625 141.2578125 C14.72640625 141.2578125 15.38640625 141.2578125 16.06640625 141.2578125 C16.29070312 140.70609375 16.515 140.154375 16.74609375 139.5859375 C18.47025808 136.54569506 20.69156447 134.44355577 23.19140625 132.0078125 C24.10148437 131.11578125 25.0115625 130.22375 25.94921875 129.3046875 C26.99722656 128.29148438 26.99722656 128.29148438 28.06640625 127.2578125 C27.64488281 126.37738281 27.22335938 125.49695313 26.7890625 124.58984375 C26.24121094 123.42839844 25.69335938 122.26695312 25.12890625 121.0703125 C24.58363281 119.92175781 24.03835937 118.77320313 23.4765625 117.58984375 C17.83428723 104.25781937 21.93205858 91.02516997 27.06640625 78.2578125 C26.45547119 77.7306665 25.84453613 77.20352051 25.21508789 76.66040039 C20.64507011 72.64321087 16.34189621 68.56751232 12.3125 64.00390625 C3.90054561 53.56656371 3.90054561 53.56656371 -7.69140625 48.140625 C-10.59788029 48.12298328 -13.40207466 48.45820683 -16.27734375 48.859375 C-20.95823926 49.36947259 -23.33370111 48.4226324 -27.140625 45.80859375 C-33.19266454 40.57404103 -37.40464163 35.13004925 -38.28515625 27.01953125 C-38.60443686 19.19715633 -37.98703 13.39761547 -32.93359375 7.2578125 C-23.85804491 -2.44429097 -12.30772997 -6.29697812 0 0 Z M48.734375 89.24609375 C44.7648251 94.03372419 43.77875071 99.20358688 44.00390625 105.3203125 C44.7918293 110.76799551 47.14021696 114.46308044 51.06640625 118.2578125 C56.86031906 122.56578646 61.95710133 123.61930258 69.06640625 123.2578125 C75.9716227 121.92522687 79.79352716 118.83783742 84.37890625 113.6328125 C87.26929188 107.85204125 88.01020714 101.34331965 86.19140625 95.0703125 C83.46161612 89.10658181 78.42972554 84.55771608 72.34765625 82.20703125 C62.8818886 80.0400086 55.68717573 82.62636132 48.734375 89.24609375 Z " fill="#FDBC11" transform="translate(62.93359375,26.7421875)"/>
<path d="M0 0 C0.66 0 1.32 0 2 0 C6.72999169 11.37398003 8.49188937 21.96291796 5 34 C3.42118212 37.70913184 1.73304686 41.36068254 0 45 C3.30481942 48.32969934 6.61303259 51.65597725 9.92431641 54.97924805 C11.04828273 56.10821623 12.17134658 57.23808368 13.29345703 58.36889648 C14.91457481 60.0022627 16.53900416 61.6322741 18.1640625 63.26171875 C18.65806549 63.76088303 19.15206848 64.2600473 19.66104126 64.77433777 C22.11372273 67.22740515 24.61484775 69.54483511 27.30224609 71.73364258 C30 74 30 74 31 76 C31.99 75.835 32.98 75.67 34 75.5 C42.39685018 74.37256721 48.43615701 74.97640131 56 79 C58.875 81.4375 58.875 81.4375 61 84 C61.721875 84.825 62.44375 85.65 63.1875 86.5 C67.10897888 91.90893639 68.40716297 97.87666704 67.75390625 104.4921875 C66.4595964 112.02896522 64.29528387 117.4137729 58.25 122.25 C51.54771587 126.88337202 45.1808537 129.02080951 37 128 C29.06556244 126.33511802 23.54513808 121.21491126 18.625 115 C14.93289597 108.18380795 14.14925643 101.86106699 15.8125 94.3125 C15.874375 93.219375 15.93625 92.12625 16 91 C13.94663241 88.90324013 13.94663241 88.90324013 11 87 C9.11776774 84.95251823 7.33533841 82.83979469 5.55078125 80.70703125 C4.09320225 78.89605411 4.09320225 78.89605411 2 78 C2 77.34 2 76.68 2 76 C1.34 76 0.68 76 0 76 C-1.33895632 74.33784732 -2.67130142 72.67036393 -4 71 C-4.78375 70.38125 -5.5675 69.7625 -6.375 69.125 C-9.70481443 66.42943594 -12.29674117 63.30707953 -15 60 C-18.83207119 60.66920361 -22.33097266 61.78292672 -26 63.0625 C-36.8708037 66.40453763 -45.75466039 65.58846168 -56.41796875 61.875 C-58.86132129 60.89301595 -58.86132129 60.89301595 -61 61 C-63.1500513 62.98587454 -65.20558829 64.99925241 -67.25 67.08984375 C-67.86391602 67.70896133 -68.47783203 68.32807892 -69.11035156 68.96595764 C-71.07834136 70.9518158 -73.03955014 72.94420014 -75 74.9375 C-76.96128407 76.92637062 -78.92398426 78.91378872 -80.88964844 80.89833069 C-82.11441318 82.13538125 -83.33649528 83.37509453 -84.55566406 84.61766052 C-88.77648688 88.88824344 -88.77648688 88.88824344 -91 90 C-90.835 91.134375 -90.67 92.26875 -90.5 93.4375 C-89.44552325 102.22997527 -89.27390863 109.60801064 -94.4765625 117.13671875 C-99.2272252 123.00454642 -104.58640533 126.47157104 -112 128 C-120.76594293 128.85682149 -126.95079383 126.95212663 -133.75 121.375 C-139.6358332 115.82405041 -142.5409931 109.39826828 -143.08984375 101.3203125 C-142.79987274 93.83149603 -140.12374918 88.10244174 -134.94140625 82.7578125 C-128.44236476 76.8733685 -122.8403382 74.84490635 -114 75 C-112.57873243 75.26835122 -111.16116057 75.55776235 -109.75 75.875 C-106.12332725 76.37828043 -106.12332725 76.37828043 -104.12890625 74.65234375 C-102.33231095 72.83256658 -100.6737809 70.93223237 -99 69 C-98.113125 68.29875 -97.22625 67.5975 -96.3125 66.875 C-93.85397854 65.01947108 -93.85397854 65.01947108 -91.8125 62.25 C-91.214375 61.5075 -90.61625 60.765 -90 60 C-89.34 60 -88.68 60 -88 60 C-87.77570313 59.44828125 -87.55140625 58.8965625 -87.3203125 58.328125 C-85.59614817 55.28788256 -83.37484178 53.18574327 -80.875 50.75 C-79.96492188 49.85796875 -79.05484375 48.9659375 -78.1171875 48.046875 C-77.06917969 47.03367187 -77.06917969 47.03367187 -76 46 C-76.3609375 45.32453125 -76.721875 44.6490625 -77.09375 43.953125 C-77.5578125 43.06109375 -78.021875 42.1690625 -78.5 41.25 C-78.9640625 40.36828125 -79.428125 39.4865625 -79.90625 38.578125 C-81 36 -81 36 -81 32 C-80.34 32 -79.68 32 -79 32 C-78.18082358 33.72601379 -77.36993984 35.4559647 -76.5625 37.1875 C-76.11003906 38.15042969 -75.65757813 39.11335938 -75.19140625 40.10546875 C-74.08129421 42.80249505 -73.2880232 45.09990438 -73 48 C-74.8125 50.3125 -74.8125 50.3125 -77 52 C-77.66 52 -78.32 52 -79 52 C-79 52.66 -79 53.32 -79 54 C-80.45776367 55.43652344 -80.45776367 55.43652344 -82.48046875 57.109375 C-86.98895747 60.94342798 -91.15520371 65.04166986 -95.3125 69.25 C-96.01439453 69.95640625 -96.71628906 70.6628125 -97.43945312 71.390625 C-98.73335821 72.69316435 -100.02622315 73.99673852 -101.31762695 75.30175781 C-101.87281006 75.86217773 -102.42799316 76.42259766 -103 77 C-103.51900879 77.57435791 -104.03801758 78.14871582 -104.57275391 78.74047852 C-105.04374512 79.15612061 -105.51473633 79.5717627 -106 80 C-108.34765625 79.69921875 -108.34765625 79.69921875 -111 79 C-119.5128516 78.46717232 -126.44061942 79.11961189 -133.38671875 84.40234375 C-137.887636 88.85966858 -139.23182755 94.38375676 -139.4375 100.5625 C-139.2459862 105.62697602 -138.09705478 109.40261067 -136 114 C-135.60361328 114.99966797 -135.60361328 114.99966797 -135.19921875 116.01953125 C-132.56892924 120.36336441 -127.59097164 122.25879002 -123 124 C-115.37844129 125.30368767 -108.82132703 124.4108449 -102.09765625 120.5625 C-97.78539117 117.35038448 -94.96377551 113.3543084 -94 108 C-93.69283718 101.59475183 -93.8525486 95.31098272 -95 89 C-94.18208984 88.41605469 -94.18208984 88.41605469 -93.34765625 87.8203125 C-87.95802528 83.82185124 -83.59618516 79.4826763 -79.19921875 74.42578125 C-76.58183214 71.53875268 -73.75883515 69.0415935 -70.7890625 66.52734375 C-67.38717266 63.62311029 -64.48029804 60.72044706 -62 57 C-61.39671875 57.20496094 -60.7934375 57.40992188 -60.171875 57.62109375 C-59.37265625 57.89050781 -58.5734375 58.15992188 -57.75 58.4375 C-56.96109375 58.70433594 -56.1721875 58.97117188 -55.359375 59.24609375 C-45.69143086 62.33535405 -32.48366498 63.04581137 -23.0625 59 C-22.37285156 58.62875 -21.68320313 58.2575 -20.97265625 57.875 C-18.4796023 56.76917013 -16.70024468 56.71021764 -14 57 C-11.18716325 59.39091124 -8.99891307 62.00135132 -6.6875 64.875 C-4.01531015 68.18097846 -0.85168386 70.79455151 2.42578125 73.484375 C2.94527344 73.98453125 3.46476563 74.4846875 4 75 C4 75.66 4 76.32 4 77 C4.58910156 77.26167969 5.17820313 77.52335937 5.78515625 77.79296875 C8.83214386 79.45349639 10.8615657 81.71168733 13.24609375 84.19921875 C14.75669939 85.75019692 16.37063014 87.19930137 18 88.625 C18.99 89.800625 18.99 89.800625 20 91 C19.640625 93.31640625 19.640625 93.31640625 19 96 C18.34911863 104.3738392 18.83203955 111.24846789 24.375 117.8125 C30.77205099 123.14337582 36.17272573 124.38730696 44.37109375 124.27734375 C50.29146193 123.6527581 54.61307323 121.3266256 58.875 117.25 C63.36055898 110.38973332 64.95308356 104.21218571 64 96 C62.47199737 89.21282553 59.21503666 85.25052566 53.5 81.25 C47.31692525 78.15846263 39.94960125 78.1863169 33.375 80 C30 80 30 80 28.2578125 78.53125 C26.42314834 76.41119364 24.72027834 74.21342479 23 72 C21.81344922 70.74979306 20.60572312 69.519248 19.375 68.3125 C18.84648437 67.79300781 18.31796875 67.27351563 17.7734375 66.73828125 C17.18820313 66.16464844 16.60296875 65.59101563 16 65 C13.39329867 62.40193013 10.7969839 59.79442487 8.2109375 57.17578125 C7.26563759 56.2213417 6.32032502 55.26691468 5.375 54.3125 C4.89804688 53.82716797 4.42109375 53.34183594 3.9296875 52.84179688 C1.70746954 50.60414685 -0.36369136 48.7575391 -3 47 C-2.53702564 42.37025643 -1.16270587 39.02780577 1.0625 35.02734375 C5.20769102 26.06336816 3.55804664 14.21677873 1 5 C0.66013333 3.33465333 0.32297514 1.66870487 0 0 Z " fill="#FA9904" transform="translate(167,108)"/>
<path d="M0 0 C7.07761596 4.30811406 11.2496508 9.2338339 13.66015625 17.2265625 C14.09713703 19.41146638 14.19922093 21.40562823 14.19140625 23.6328125 C14.19527344 24.82003906 14.19527344 24.82003906 14.19921875 26.03125 C14.06640625 28.2578125 14.06640625 28.2578125 13.06640625 31.2578125 C13.06640625 35.81222471 15.66200476 37.81629013 18.71875 41.0078125 C21.57855466 43.7486569 24.52499671 46.34816589 27.59765625 48.84765625 C28.08234375 49.31300781 28.56703125 49.77835938 29.06640625 50.2578125 C29.06640625 50.9178125 29.06640625 51.5778125 29.06640625 52.2578125 C29.62328125 52.4846875 30.18015625 52.7115625 30.75390625 52.9453125 C33.71331986 54.62497968 35.69049411 56.82533102 38.06640625 59.2578125 C40.03339791 60.96904874 42.04391374 62.61159767 44.06640625 64.2578125 C44.77990234 63.85949219 44.77990234 63.85949219 45.5078125 63.453125 C56.17217059 58.0718467 68.60870734 56.82688595 80.06640625 60.2578125 C89.46490249 64.05480498 89.46490249 64.05480498 91.06640625 67.2578125 C87.51873317 66.66024345 84.59365372 65.65128709 81.31640625 64.1953125 C68.28477688 59.37008757 54.54247545 62.17005378 42.06640625 67.2578125 C38.84375 64.03515625 35.62109375 60.8125 32.3984375 57.58984375 C31.8327002 57.02475098 31.26696289 56.4596582 30.68408203 55.87744141 C29.23784192 54.42945515 27.79815994 52.97492554 26.359375 51.51953125 C24.48241908 49.66815565 22.59260176 47.93993708 20.56640625 46.2578125 C17.57030348 43.71407535 14.72414101 41.15715952 12.06640625 38.2578125 C12.06640625 37.5978125 12.06640625 36.9378125 12.06640625 36.2578125 C11.40640625 36.2578125 10.74640625 36.2578125 10.06640625 36.2578125 C10.10121094 34.96746094 10.13601562 33.67710938 10.171875 32.34765625 C10.20002967 30.63022144 10.22732802 28.91277243 10.25390625 27.1953125 C10.27904297 26.34775391 10.30417969 25.50019531 10.33007812 24.62695312 C10.41093155 17.6466076 9.39307232 12.88276909 4.62890625 7.5078125 C-1.85482179 1.814783 -6.12832162 0.87900881 -14.7578125 0.984375 C-20.34331151 1.46529127 -25.45603653 2.90267575 -29.59375 6.8359375 C-34.09875436 12.66748833 -35.47162349 19.36695666 -35.31640625 26.62890625 C-34.46048593 32.50680805 -31.66881481 37.47692773 -27.55859375 41.6953125 C-20.75442569 45.74541254 -15.83432973 46.91832419 -7.93359375 46.2578125 C-6.66515625 45.91169922 -6.66515625 45.91169922 -5.37109375 45.55859375 C-2.93359375 45.2578125 -2.93359375 45.2578125 -0.94140625 46.41015625 C-0.32007813 46.99925781 0.30125 47.58835938 0.94140625 48.1953125 C1.6375 48.85273437 2.33359375 49.51015625 3.05078125 50.1875 C5.43865952 52.64016566 7.66115697 55.19533191 9.875 57.8046875 C12.88669785 61.17607119 16.06096227 64.3712172 19.25390625 67.5703125 C19.86057129 68.18140869 20.46723633 68.79250488 21.09228516 69.42211914 C23.94569393 72.26646071 26.73333478 74.96684278 30.06640625 77.2578125 C29.60928387 78.79983866 29.15064278 80.34141464 28.69140625 81.8828125 C28.43617187 82.74132812 28.1809375 83.59984375 27.91796875 84.484375 C27.34603089 86.34710838 26.7061661 88.19019877 26.00390625 90.0078125 C24.78600783 94.22986035 24.60879774 98.25970991 24.44140625 102.6328125 C24.38339844 103.87998047 24.38339844 103.87998047 24.32421875 105.15234375 C24.23066379 107.18716406 24.14747912 109.22245666 24.06640625 111.2578125 C23.07640625 111.7528125 23.07640625 111.7528125 22.06640625 112.2578125 C18.21061374 100.69043496 22.74673896 88.99933996 27.06640625 78.2578125 C26.45547119 77.7306665 25.84453613 77.20352051 25.21508789 76.66040039 C20.64507011 72.64321087 16.34189621 68.56751232 12.3125 64.00390625 C3.90054561 53.56656371 3.90054561 53.56656371 -7.69140625 48.140625 C-10.59788029 48.12298328 -13.40207466 48.45820683 -16.27734375 48.859375 C-20.95823926 49.36947259 -23.33370111 48.4226324 -27.140625 45.80859375 C-33.19266454 40.57404103 -37.40464163 35.13004925 -38.28515625 27.01953125 C-38.60443686 19.19715633 -37.98703 13.39761547 -32.93359375 7.2578125 C-23.85804491 -2.44429097 -12.30772997 -6.29697812 0 0 Z " fill="#FA9804" transform="translate(62.93359375,26.7421875)"/>
<path d="M0 0 C7.29816642 4.51924921 11.35782167 9.54026571 13.78125 17.8203125 C14.56566826 25.46839054 13.35504279 31.33145721 10.03125 38.2578125 C7.46875 41.2578125 7.46875 41.2578125 5.03125 43.2578125 C4.32935547 43.99257812 4.32935547 43.99257812 3.61328125 44.7421875 C0.51955883 47.70604996 -2.83267964 49.21409912 -6.96875 50.2578125 C-9.33966893 49.95440204 -11.70330515 49.59093891 -14.05859375 49.18359375 C-18.43146846 48.68473087 -21.34464711 48.87862143 -25.21630859 51.23095703 C-28.35937094 53.9564734 -31.06938976 57.05043018 -33.78125 60.1953125 C-35.22056491 61.7794006 -36.67135652 63.35222575 -38.12492371 64.92323303 C-39.42278109 66.33871959 -40.6923454 67.77999476 -41.96020508 69.22241211 C-42.6230249 69.89409424 -43.28584473 70.56577637 -43.96875 71.2578125 C-44.62875 71.2578125 -45.28875 71.2578125 -45.96875 71.2578125 C-46.195625 71.8353125 -46.4225 72.4128125 -46.65625 73.0078125 C-48.31723222 75.85521059 -50.28399561 77.37848443 -52.96875 79.2578125 C-53.62875 79.2578125 -54.28875 79.2578125 -54.96875 79.2578125 C-53.83252237 75.84912961 -52.32426903 74.76670003 -49.58203125 72.57421875 C-46.22183045 69.83235999 -43.36960543 66.7561733 -40.65625 63.3828125 C-38.09348014 60.23357806 -35.11674988 57.74236315 -32.015625 55.13671875 C-29.87841499 53.17489047 -28.15032945 51.08653053 -26.34375 48.8203125 C-23.40662425 45.33079154 -23.40662425 45.33079154 -19.59375 44.6953125 C-16.96875 45.2578125 -16.96875 45.2578125 -15.96875 46.2578125 C-9.90423857 47.08356071 -5.3304575 45.93866625 0.0859375 43.23046875 C2.03125 42.2578125 2.03125 42.2578125 5.03125 41.2578125 C6.13293984 39.56012016 6.13293984 39.56012016 7.03125 37.2578125 C7.5675 36.2884375 8.10375 35.3190625 8.65625 34.3203125 C11.30755495 28.05728091 11.3012417 19.57163786 8.78125 13.2578125 C5.47387086 7.58801969 2.17206748 3.85596563 -3.96875 1.2578125 C-6.80421921 0.6978669 -9.52223157 0.63691589 -12.40625 0.6953125 C-13.53003052 0.70848511 -13.53003052 0.70848511 -14.67651367 0.72192383 C-22.1877616 0.99975395 -26.17060172 3.38602874 -31.34375 8.6953125 C-35.50970636 15.26470522 -35.37930023 21.68650251 -34.96875 29.2578125 C-34.68773437 30.41410156 -34.40671875 31.57039063 -34.1171875 32.76171875 C-33.96875 36.2578125 -33.96875 36.2578125 -36.21484375 39.3203125 C-37.25835539 40.32107506 -38.32358116 41.29954823 -39.40625 42.2578125 C-40.23950806 43.04079712 -40.23950806 43.04079712 -41.08959961 43.83959961 C-44.60219765 47.11588542 -48.21904318 50.28012827 -51.87890625 53.390625 C-56.4413512 57.46697768 -60.67959962 61.89770192 -64.96875 66.2578125 C-64.96875 61.28168114 -61.33357494 58.68839949 -57.96875 55.2578125 C-55.24326072 52.67679 -52.46442074 50.15465465 -49.68359375 47.63354492 C-45.77403763 44.06858109 -42.28982468 40.38671615 -38.96875 36.2578125 C-38.30875 35.5978125 -37.64875 34.9378125 -36.96875 34.2578125 C-37.29230469 33.54238281 -37.61585938 32.82695313 -37.94921875 32.08984375 C-40.2276509 25.76086557 -39.78403026 18.31270495 -37.0625 12.1640625 C-29.30577255 -1.35480533 -14.37072914 -7.44570387 0 0 Z " fill="#FB9804" transform="translate(220.96875,26.7421875)"/>
<path d="M0 0 C3.40392804 1.96300144 5.99640173 4.3834905 8.625 7.3125 C9.181875 7.76625 9.73875 8.22 10.3125 8.6875 C13.77820609 12.9783742 14.02417811 18.80425986 13.87109375 24.1171875 C13.13734094 30.66272847 9.45424784 36.03395586 4.625 40.3125 C-1.84691045 44.67847133 -8.74727477 45.32189884 -16.375 44.3125 C-23.41484195 42.31964692 -27.59448409 37.52136313 -31.515625 31.5859375 C-32.77846951 28.24513976 -32.74353579 24.96049344 -32.75 21.4375 C-32.77449219 20.74269531 -32.79898438 20.04789063 -32.82421875 19.33203125 C-32.85970305 13.05131052 -30.64742903 9.67980182 -26.41015625 5.265625 C-25.75917969 4.70359375 -25.10820313 4.1415625 -24.4375 3.5625 C-23.78910156 2.99015625 -23.14070313 2.4178125 -22.47265625 1.828125 C-15.94445647 -2.88871209 -7.27395738 -3.40923619 0 0 Z M-26.70703125 8.30078125 C-30.67658115 13.08841169 -31.66265554 18.25827438 -31.4375 24.375 C-30.64957695 29.82268301 -28.30118929 33.51776794 -24.375 37.3125 C-18.58108719 41.62047396 -13.48430492 42.67399008 -6.375 42.3125 C0.53021645 40.97991437 4.35212091 37.89252492 8.9375 32.6875 C11.82788563 26.90672875 12.56880089 20.39800715 10.75 14.125 C8.02020987 8.16126931 2.98831929 3.61240358 -3.09375 1.26171875 C-12.55951765 -0.9053039 -19.75423052 1.68104882 -26.70703125 8.30078125 Z " fill="#FB9804" transform="translate(138.375,107.6875)"/>
<path d="M0 0 C0.99 0.33 1.98 0.66 3 1 C3.36590746 2.72672034 3.71722195 4.45653655 4.0625 6.1875 C4.25972656 7.15042969 4.45695313 8.11335937 4.66015625 9.10546875 C5.00423947 12.03610862 4.74164697 14.16307068 4 17 C3.34 17 2.68 17 2 17 C1.34 11.39 0.68 5.78 0 0 Z " fill="#F88E03" transform="translate(230,198)"/>
<path d="M0 0 C0.66 0 1.32 0 2 0 C2.77916092 5.02125926 3.13016601 8.97703996 2 14 C1.34 14 0.68 14 0 14 C0 9.38 0 4.76 0 0 Z " fill="#F38102" transform="translate(171,122)"/>
<path d="M0 0 C0.99 0.33 1.98 0.66 3 1 C2.67 3.31 2.34 5.62 2 8 C1.34 8 0.68 8 0 8 C0 5.36 0 2.72 0 0 Z " fill="#EC8002" transform="translate(232,207)"/>
</svg>
